<svg id="Capa_1" enable-background="new 0 0 496.831 496.831" height="512" viewBox="0 0 496.831 496.831" width="512" xmlns="http://www.w3.org/2000/svg"><g><path d="m175.012 433.353-19.711 6.285c-45.076 14.372-94.285-1.823-122.015-40.156l-8.905-12.31c-4.639-6.413-11.481-10.888-19.215-12.569l-2.734-.594c-2.554-.555-3.304-3.836-1.246-5.446l20.27-15.855c13.817-10.807 30.028-18.138 47.268-21.376l28.611-5.373 135.356-25.102 7.723 106.619z" fill="#97da7b"/><path d="m82.11 401.848-8.905-12.31c-4.639-6.413-11.481-10.888-19.215-12.57l-2.734-.594c-2.554-.555-3.304-3.836-1.246-5.446l20.27-15.855c13.817-10.807 30.028-18.138 47.268-21.376l28.611-5.373 87.348-16.199-.816-11.269-135.355 25.102-28.611 5.373c-17.24 3.238-33.451 10.569-47.268 21.376l-20.27 15.855c-2.059 1.61-1.308 4.891 1.246 5.446l2.734.594c7.734 1.681 14.576 6.157 19.215 12.57l8.905 12.31c24.873 34.384 67.069 50.949 108.021 43.626-23.26-6.529-44.336-20.715-59.198-41.26z" fill="#80d261"/><g id="XMLID_247_"><g><path d="m426.345 85.781c1.74 14.61 1.26 29.4-1.41 43.87l-3.48 18.89-31.99 94.04s-110.55-63.92-112.93-65.08l45.3-86.17c25.16-24.85 58.47-39.76 93.76-41.96.14-.01.28-.01.42-.01 3.39 0 6.3 2.53 6.7 5.95z" fill="#fdd5d5"/></g></g><path d="m345.25 115.431c21.817-21.548 49.764-35.616 79.814-40.41l-2.348-19.711c-.4-3.42-3.31-5.95-6.7-5.95-.14 0-.28 0-.42.01-35.29 2.2-68.6 17.11-93.76 41.96l-45.3 86.17c.752.366 12.294 6.994 27.732 15.888z" fill="#f9b1b1"/><path d="m173.992 91.33c-25.159-24.851-58.463-39.755-93.758-41.958-3.573-.223-6.699 2.383-7.122 5.938l-3.626 30.469c-1.739 14.611-1.265 29.401 1.406 43.872l3.487 18.895 26.562 96.459 126.618-104.106z" fill="#fdd5d5"/><path d="m105.108 166.795-3.488-18.895c-2.671-14.47-3.145-29.26-1.406-43.872l3.626-30.469c.423-3.555 3.549-6.161 7.122-5.938 17.289 1.079 34.097 5.213 49.708 12.064-23.069-17.842-51.061-28.48-80.436-30.314-3.573-.223-6.699 2.383-7.122 5.938l-3.626 30.469c-1.739 14.611-1.265 29.401 1.406 43.872l3.487 18.895 26.562 96.459 20.958-17.232z" fill="#f9b1b1"/><g><path d="m341.53 439.638c45.076 14.372 94.285-1.823 122.015-40.156l8.905-12.31c4.639-6.413 11.481-10.888 19.215-12.569l2.734-.594c2.554-.555 3.304-3.836 1.246-5.446l-20.27-15.855c-13.817-10.807-30.028-18.138-47.268-21.376l-28.611-5.373-107.463-20.369-23.76 113.975z" fill="#97da7b"/><path d="m384.042 414.211c-14.354-3.933-22.943-18.78-18.908-33.105 1.731-6.144 3.168-12.398 4.298-18.742l2.581-14.489 4.91-26.194-84.891-16.091-23.76 113.975 73.258 20.073c38.819 12.377 80.728 2.06 109.319-25.519-21.205 6.812-44.528 7.195-66.807.092z" fill="#80d261"/><path d="m352.339 344.275-2.597 14.582c-8.89 49.913-38.841 93.582-82.203 119.852l-5.847 3.542c-8.468 5.13-19.085 5.13-27.553 0l-5.847-3.542c-43.362-26.27-73.314-69.938-82.203-119.852l-2.597-14.582-13.565-78.234h237.076z" fill="#97da7b"/><path d="m280.864 467.252-5.847-3.542c-43.362-26.269-73.314-69.938-82.203-119.852l-2.597-14.581-10.964-63.236h-49.326l13.565 78.234 2.597 14.582c8.89 49.913 38.841 93.582 82.203 119.852l5.847 3.542c8.468 5.13 19.085 5.13 27.553 0l5.847-3.542c5.299-3.21 10.405-6.686 15.29-10.395-.661-.33-1.327-.675-1.965-1.062z" fill="#80d261"/><g><path d="m493.396 147.591v24.41c0 95.14-77.13 172.27-172.27 172.27h-146.42c-95.14 0-172.27-77.13-172.27-172.27v-24.41c0-5.38 6.02-8.55 10.45-5.51l2.69 1.84c4.39 3.01 9.59 4.62 14.91 4.62h43.89c24.96 0 49.36 7.32 70.2 21.04l60.62 36.1 42.72 56.42 73.9-66.82 29.44-25.7c20.84-13.72 45.24-21.04 70.2-21.04h43.89c5.32 0 10.52-1.61 14.91-4.62l2.69-1.84c4.429-3.04 10.45.13 10.45 5.51z" fill="#f9b1b1"/></g><g id="XMLID_246_"><g><path d="m369.913 329.896h-42.225c-6.025 0-9.149-7.141-5.097-11.6 23.944-26.344 40.26-59.133 46.726-95.319 3.819-21.375 3.993-42.828.757-63.613-6.518 2.867-12.819 6.267-18.819 10.217l-29.44 25.7-73.9 66.82-42.72-56.42-60.62-36.1c-5.999-3.95-12.301-7.35-18.819-10.217-3.236 20.785-3.062 42.238.757 63.613 5.02 28.097 15.982 54.144 31.838 76.715 5.103 7.264-2.771 16.535-10.738 12.62-57.092-28.056-96.391-86.779-96.391-154.687v-9.085h-20.736c-5.32 0-10.52-1.61-14.91-4.62l-2.69-1.84c-4.43-3.04-10.45.13-10.45 5.51v24.41c0 95.142 77.128 172.27 172.27 172.27h146.42c25.948 0 50.551-5.749 72.621-16.024-7.792 1.08-15.746 1.65-23.834 1.65z" fill="#f79595"/><path d="m309.155 75.171c73.48 83.15 50.27 213.07-47.46 265.63-4.3 2.32-9.04 3.47-13.78 3.47s-9.48-1.15-13.78-3.47c-97.73-52.56-120.94-182.48-47.46-265.63l54.11-61.22c3.79-4.29 10.47-4.29 14.26 0z" fill="#f9c6c6"/></g></g><path d="m244.057 75.171 32.549-36.826-21.561-24.394c-3.79-4.29-10.47-4.29-14.26 0l-54.11 61.22c-73.48 83.15-50.27 213.07 47.46 265.63 4.3 2.32 9.04 3.47 13.78 3.47s9.48-1.15 13.78-3.47c5.186-2.789 10.148-5.808 14.911-9.014-84.997-57.214-102.13-177.878-32.549-256.616z" fill="#f9b1b1"/></g></g></svg>