<svg id="Capa_1" enable-background="new 0 0 486.157 486.157" height="512" viewBox="0 0 486.157 486.157" width="512" xmlns="http://www.w3.org/2000/svg"><g><path d="m390.029 339.218c.016 81.137-65.746 146.924-146.883 146.94-76.867.015-140.751-59.226-146.525-135.876-.35-3.664-.492-7.329-.492-11.064-.006-137.828 146.911-339.218 146.911-339.218 39.71 54.501 74.135 112.662 102.809 173.694 24.708 54.046 44.18 113.168 44.18 165.524z" fill="#419be9"/><path d="m360.085 260.861c.003 81.134-65.767 146.907-146.901 146.91-45.679.001-88.76-21.246-116.564-57.49-.35-3.664-.492-7.329-.492-11.064-.005-137.827 146.912-339.217 146.912-339.217 39.71 54.501 74.135 112.662 102.809 173.694 8.847 28.236 13.64 57.584 14.236 87.167z" fill="#69b0ee"/></g></svg>